<?xml version="1.0" standalone="no"?>
<!DOCTYPE svg PUBLIC "-//W3C//DTD SVG 20010904//EN"
 "http://www.w3.org/TR/2001/REC-SVG-20010904/DTD/svg10.dtd">
<svg version="1.0" xmlns="http://www.w3.org/2000/svg"
 width="300.000000pt" height="300.000000pt" viewBox="0 0 300.000000 300.000000"
 preserveAspectRatio="xMidYMid meet">
<metadata>
Created by potrace 1.14, written by Peter Selinger 2001-2017
</metadata>
<g transform="translate(0.000000,300.000000) scale(0.100000,-0.100000)"
fill="#000000" stroke="none">
<path d="M1095 2417 c-34 -11 -168 -95 -173 -108 -2 -5 -8 -9 -13 -9 -10 0
-103 -62 -107 -72 -2 -5 -7 -8 -11 -8 -7 0 -69 -41 -295 -192 -10 -7 -29 -21
-41 -30 -13 -10 -26 -18 -29 -18 -7 0 -32 -20 -88 -69 -73 -64 -131 -172 -143
-266 -8 -59 -7 -378 0 -418 9 -47 44 -132 67 -164 37 -49 97 -113 107 -113 5
0 11 -3 13 -7 2 -5 44 -35 93 -68 50 -33 93 -64 97 -70 5 -7 8 -7 8 0 0 7 3 7
8 0 7 -10 20 -19 296 -205 l169 -113 79 -2 c92 -2 137 14 185 67 49 55 61 106
61 248 -1 122 -13 193 -41 227 -34 40 -82 83 -95 83 -5 0 -17 9 -27 20 -10 11
-22 20 -27 20 -11 0 -72 42 -76 53 -2 4 -8 7 -12 7 -5 0 -48 27 -95 60 -47 33
-90 60 -95 60 -4 0 -10 3 -12 8 -2 4 -33 27 -70 51 -38 25 -68 48 -68 52 0 12
29 37 50 44 11 3 20 10 20 15 0 5 9 12 20 15 11 3 26 12 32 19 20 19 108 76
118 76 4 0 10 3 12 8 2 4 57 43 123 87 253 168 254 171 252 401 -2 161 -13
199 -69 251 -59 54 -158 81 -223 60z"/>
<path d="M1820 2423 c-105 -32 -177 -108 -187 -197 -6 -48 -6 -240 0 -276 6
-41 62 -130 82 -130 3 0 13 -6 20 -12 27 -24 41 -35 51 -39 5 -2 76 -49 157
-104 81 -55 156 -104 167 -110 11 -5 20 -13 20 -17 0 -5 7 -8 15 -8 8 0 15 -4
15 -10 0 -5 7 -10 15 -10 8 0 15 -4 15 -10 0 -5 7 -10 15 -10 8 0 15 -4 15
-10 0 -5 7 -10 16 -10 11 0 14 -5 10 -16 -3 -9 -6 -18 -6 -20 0 -2 -5 -4 -11
-4 -6 0 -28 -12 -48 -27 -20 -16 -45 -34 -56 -41 -55 -34 -81 -52 -90 -59 -5
-4 -71 -48 -145 -98 -74 -49 -136 -93 -138 -97 -2 -4 -9 -8 -16 -8 -25 0 -103
-96 -114 -140 -10 -40 -4 -298 7 -332 13 -41 83 -123 94 -111 4 3 7 2 7 -4 0
-19 52 -29 133 -28 l77 2 133 88 c72 49 134 93 135 97 2 4 8 8 13 8 5 0 27 12
48 27 47 34 53 38 166 113 50 33 95 64 101 68 5 5 21 15 34 22 72 39 192 170
206 225 2 6 10 30 20 55 13 36 16 84 16 245 0 110 -2 218 -6 240 -10 62 -70
176 -118 222 -75 72 -101 93 -114 93 -7 0 -17 6 -21 13 -9 13 -36 32 -68 46
-12 5 -27 16 -34 25 -7 9 -19 16 -26 16 -8 0 -15 4 -17 8 -4 11 -97 72 -109
72 -5 0 -9 4 -9 8 0 4 -15 16 -32 27 -18 10 -57 36 -85 57 -29 21 -53 36 -53
33 0 -4 -6 0 -14 7 -7 7 -24 20 -36 28 -12 8 -36 25 -53 38 -17 12 -37 22 -44
22 -7 0 -13 4 -13 9 0 15 -109 33 -140 24z"/>
</g>
</svg>
